<svg xmlns="http://www.w3.org/2000/svg" viewBox="0 0 200 200" width="200" height="200">
  <defs>
    <linearGradient id="bg4" x1="0%" y1="0%" x2="100%" y2="100%">
      <stop offset="0%" style="stop-color:#dbeafe"/>
      <stop offset="100%" style="stop-color:#bfdbfe"/>
    </linearGradient>
    <linearGradient id="strip4" x1="0%" y1="0%" x2="100%" y2="0%">
      <stop offset="0%" style="stop-color:#1d4ed8"/>
      <stop offset="100%" style="stop-color:#3b82f6"/>
    </linearGradient>
    <linearGradient id="tab4" x1="0%" y1="0%" x2="100%" y2="100%">
      <stop offset="0%" style="stop-color:#3b82f6"/>
      <stop offset="100%" style="stop-color:#1d4ed8"/>
    </linearGradient>
  </defs>
  <rect x="20" y="40" width="160" height="120" rx="14" fill="url(#bg4)" stroke="#1d4ed8" stroke-width="2.5"/>
  <rect x="20" y="40" width="160" height="36" rx="14" fill="url(#strip4)"/>
  <rect x="20" y="64" width="160" height="12" fill="url(#strip4)"/>
  <text x="100" y="66" text-anchor="middle" font-family="Arial Black, sans-serif" font-size="13" font-weight="900" fill="white" letter-spacing="1">AZAYA-LB</text>
  <ellipse cx="52" cy="105" rx="16" ry="10" fill="url(#tab4)" opacity="0.9"/>
  <ellipse cx="100" cy="105" rx="16" ry="10" fill="url(#tab4)" opacity="0.9"/>
  <ellipse cx="148" cy="105" rx="16" ry="10" fill="url(#tab4)" opacity="0.9"/>
  <ellipse cx="52" cy="135" rx="16" ry="10" fill="#1d4ed8" opacity="0.85"/>
  <ellipse cx="100" cy="135" rx="16" ry="10" fill="#1d4ed8" opacity="0.85"/>
  <ellipse cx="148" cy="135" rx="16" ry="10" fill="#1d4ed8" opacity="0.85"/>
  <line x1="40" y1="105" x2="64" y2="105" stroke="white" stroke-width="1.5" opacity="0.7"/>
  <line x1="88" y1="105" x2="112" y2="105" stroke="white" stroke-width="1.5" opacity="0.7"/>
  <line x1="136" y1="105" x2="160" y2="105" stroke="white" stroke-width="1.5" opacity="0.7"/>
  <line x1="40" y1="135" x2="64" y2="135" stroke="white" stroke-width="1.5" opacity="0.7"/>
  <line x1="88" y1="135" x2="112" y2="135" stroke="white" stroke-width="1.5" opacity="0.7"/>
  <line x1="136" y1="135" x2="160" y2="135" stroke="white" stroke-width="1.5" opacity="0.7"/>
  <text x="100" y="175" text-anchor="middle" font-family="Arial, sans-serif" font-size="7" fill="#1e40af">Azithromycin 500mg + Lactic Acid Bacillus</text>
</svg>