<svg xmlns="http://www.w3.org/2000/svg" viewBox="0 0 200 200" width="200" height="200">
  <defs>
    <linearGradient id="bg2" x1="0%" y1="0%" x2="100%" y2="100%">
      <stop offset="0%" style="stop-color:#fae8ff"/>
      <stop offset="100%" style="stop-color:#f3e8ff"/>
    </linearGradient>
    <linearGradient id="strip2" x1="0%" y1="0%" x2="100%" y2="0%">
      <stop offset="0%" style="stop-color:#a21caf"/>
      <stop offset="100%" style="stop-color:#c026d3"/>
    </linearGradient>
    <linearGradient id="tab2" x1="0%" y1="0%" x2="100%" y2="100%">
      <stop offset="0%" style="stop-color:#c026d3"/>
      <stop offset="100%" style="stop-color:#86198f"/>
    </linearGradient>
  </defs>
  <rect x="20" y="40" width="160" height="120" rx="14" fill="url(#bg2)" stroke="#c026d3" stroke-width="2.5"/>
  <rect x="20" y="40" width="160" height="36" rx="14" fill="url(#strip2)"/>
  <rect x="20" y="64" width="160" height="12" fill="url(#strip2)"/>
  <text x="100" y="66" text-anchor="middle" font-family="Arial Black, sans-serif" font-size="14" font-weight="900" fill="white" letter-spacing="1">NEURAYA</text>
  <ellipse cx="52" cy="105" rx="16" ry="10" fill="url(#tab2)" opacity="0.9"/>
  <ellipse cx="100" cy="105" rx="16" ry="10" fill="url(#tab2)" opacity="0.9"/>
  <ellipse cx="148" cy="105" rx="16" ry="10" fill="url(#tab2)" opacity="0.9"/>
  <ellipse cx="52" cy="135" rx="16" ry="10" fill="#a21caf" opacity="0.85"/>
  <ellipse cx="100" cy="135" rx="16" ry="10" fill="#a21caf" opacity="0.85"/>
  <ellipse cx="148" cy="135" rx="16" ry="10" fill="#a21caf" opacity="0.85"/>
  <line x1="40" y1="105" x2="64" y2="105" stroke="white" stroke-width="1.5" opacity="0.7"/>
  <line x1="88" y1="105" x2="112" y2="105" stroke="white" stroke-width="1.5" opacity="0.7"/>
  <line x1="136" y1="105" x2="160" y2="105" stroke="white" stroke-width="1.5" opacity="0.7"/>
  <line x1="40" y1="135" x2="64" y2="135" stroke="white" stroke-width="1.5" opacity="0.7"/>
  <line x1="88" y1="135" x2="112" y2="135" stroke="white" stroke-width="1.5" opacity="0.7"/>
  <line x1="136" y1="135" x2="160" y2="135" stroke="white" stroke-width="1.5" opacity="0.7"/>
  <text x="100" y="175" text-anchor="middle" font-family="Arial, sans-serif" font-size="7" fill="#7e22ce">MCB 1500mcg + ALA 100mg + Vit. D3 1000 IU</text>
</svg>